<svg fill="#262626" xmlns="http://www.w3.org/2000/svg" xmlns:xlink="http://www.w3.org/1999/xlink" version="1.1" x="0px" y="0px" viewBox="0 0 100 100" enable-background="new 0 0 100 100" xml:space="preserve"><path d="M34.144,27.675c-0.814-0.75-2.08-0.697-2.826,0.116L12.104,48.645c-0.706,0.766-0.706,1.944,0,2.71l19.213,20.854  c0.395,0.428,0.932,0.645,1.472,0.645c0.484,0,0.97-0.175,1.354-0.529c0.813-0.748,0.864-2.014,0.115-2.826L16.295,50l17.964-19.5  C35.008,29.688,34.956,28.423,34.144,27.675z M87.896,48.645L68.683,27.791c-0.749-0.813-2.013-0.865-2.826-0.116  c-0.813,0.748-0.864,2.014-0.115,2.826L83.705,50L65.741,69.5c-0.749,0.812-0.697,2.078,0.115,2.826  c0.385,0.354,0.87,0.529,1.354,0.529c0.54,0,1.078-0.217,1.472-0.645l19.213-20.854C88.602,50.589,88.602,49.411,87.896,48.645z   M61.237,21.647c-1.03-0.407-2.189,0.096-2.597,1.123l-21,52.986c-0.407,1.027,0.096,2.189,1.122,2.596  c0.242,0.096,0.491,0.141,0.736,0.141c0.797,0,1.549-0.479,1.86-1.264l21-52.986C62.767,23.217,62.264,22.055,61.237,21.647z"></path></svg>