<svg fill="#262626" xmlns="http://www.w3.org/2000/svg" xmlns:xlink="http://www.w3.org/1999/xlink" version="1.1" x="0px" y="0px" viewBox="0 0 100 100" enable-background="new 0 0 100 100" xml:space="preserve"><path d="M96.813,68.184h-4.665c0.671-1.164,1.107-2.277,1.32-3.202c0.186-0.808-0.318-1.612-1.126-1.798  c-0.809-0.184-1.612,0.318-1.798,1.125c-0.761,3.306-5.015,9.557-15.677,9.557c-3.033,0-7.947-1.473-12.7-2.898  c-4.206-1.261-8.179-2.451-10.913-2.645c-6.497-0.457-15.396-1.426-17.671-4.55c-0.524-0.72-0.65-1.533-0.397-2.56  c0.309-1.254,1.173-2.681,5.332-2.582c1.613,0.038,3.502,0.414,5.689,0.849c1.609,0.319,3.433,0.683,5.449,0.97  c3.233,0.457,7.346,0.135,10.733-0.842c0.796-0.229,1.255-1.061,1.026-1.855c-0.229-0.797-1.06-1.258-1.856-1.027  c-0.879,0.254-1.827,0.451-2.796,0.602c-2.677-1.493-4.09-2.678-5.332-3.725c-1.104-0.932-2.082-1.746-3.572-2.416  c0.428-0.207,0.804-0.396,1.109-0.549c0.223-0.112,0.402-0.203,0.533-0.264c1.933-0.904,4.16-0.973,6.518-1.046  c1.578-0.048,3.196-0.105,4.83-0.401c0.302,1.172,0.516,2.339,0.592,3.43c0.323,4.631,3.602,6.916,6.51,7.079  c0.117,0.007,0.231,0.01,0.346,0.01c0.221,0,0.431-0.024,0.641-0.048c1.297,2.596,3.678,3.891,5.697,4.013  c0.113,0.007,0.225,0.011,0.336,0.011c1.082,0,2.043-0.323,2.758-0.902c0.811,0.492,1.775,0.82,2.775,0.82  c0.375,0,0.756-0.046,1.133-0.145c1.063-0.278,2.324-1.029,3.256-2.86c0.341,0.044,0.672,0.071,0.986,0.071  c1.259,0,2.312-0.345,3.146-1.032c1.402-1.155,2.028-3.177,1.86-6.008c-0.116-1.94-0.335-3.867-0.836-5.644  c1.502,0.223,3.736,0.438,6.764,0.438c0.828,0,1.5-0.671,1.5-1.5s-0.672-1.5-1.5-1.5c-5.482,0-8.105-0.745-8.226-0.78  c-0.934-1.452-2.255-2.67-4.115-3.54c-1.348-2.589-3.374-4.522-6.073-5.79c-3.164-6.282-10.12-6.881-13.314-7.153  c-0.344-0.029-0.639-0.057-0.908-0.086c-4.691-2.329-11.217-4.107-13.002-4.437c-1.439-0.267-3.23,0.012-5.496,0.365  c-2.137,0.333-4.549,0.718-7.101,0.67c-0.138-0.002-0.271,0.022-0.4,0.058c-4.278-1.29-8.323-1.987-10.505-0.467  c-2.902,2.023-4.965,5.022-6.959,7.923c-1.6,2.328-3.111,4.526-5.01,6.25c-0.016,0.014-0.021,0.035-0.037,0.049  c-1.546,0.915-2.886,1.979-3.979,3.191c-1.38-0.087-4.499-0.324-6.496-0.79c-0.806-0.186-1.613,0.313-1.801,1.121  c-0.188,0.807,0.313,1.613,1.121,1.801c1.539,0.359,3.59,0.589,5.196,0.729c-0.345,0.665-0.649,1.351-0.878,2.073  c-0.25,0.79,0.188,1.632,0.979,1.882c0.15,0.047,0.303,0.07,0.453,0.07c0.637,0,1.227-0.409,1.43-1.048  c2.841-8.981,15.955-9.81,20.248-9.834c1.928,0.802,4.681,1.499,7.848,0.939c1.026-0.181,1.964-0.533,2.799-1.005  c2.161,0.752,4.592,0.865,6.954,0.97c2.669,0.119,5.171,0.253,6.548,1.278c0.516,0.383,1.292,1.439,1.297,1.445  c0.891,1.255,1.806,3.043,2.545,4.996c-1.289,0.2-2.617,0.249-4.002,0.291c-2.559,0.08-5.204,0.162-7.698,1.328  c-0.149,0.07-0.354,0.172-0.607,0.3c-2.19,1.1-8.005,4.028-14.196,3.634c-0.814-0.051-1.538,0.575-1.591,1.402  c-0.052,0.826,0.575,1.539,1.403,1.592c0.447,0.027,0.892,0.041,1.334,0.041c3.289,0,6.381-0.744,8.92-1.623  c3.299,0.617,4.284,1.441,6.006,2.893c0.609,0.514,1.295,1.088,2.153,1.723c-0.546-0.027-1.077-0.068-1.574-0.139  c-1.934-0.275-3.714-0.629-5.286-0.941c-2.323-0.463-4.33-0.861-6.203-0.905c-4.695-0.103-7.491,1.524-8.314,4.862  c-0.469,1.896-0.172,3.594,0.885,5.044c2.354,3.234,8.301,4.962,19.885,5.776c0.251,0.018,0.525,0.053,0.807,0.09  c-3.264,1.162-8.185,2.461-13.895,2.461c-3.363,0-7.01-1.419-12.057-3.384c-5.605-2.183-12.582-4.897-22.41-6.913  c-0.811-0.166-1.604,0.356-1.77,1.168c-0.167,0.812,0.355,1.604,1.168,1.771c9.578,1.964,16.423,4.629,21.923,6.771  c5.15,2.005,9.219,3.588,13.146,3.588c9.539,0,16.869-3.281,18.945-4.315c1.395,0.389,2.884,0.835,4.404,1.291  c4.961,1.487,10.09,3.024,13.563,3.024c7.336,0,12.113-2.658,15.018-5.686c0.014,0,0.028,0.004,0.043,0.004h6.885  c0.828,0,1.5-0.671,1.5-1.5C98.313,68.855,97.641,68.184,96.813,68.184z M87.889,53.543c0.105,1.769-0.168,3.018-0.771,3.514  c-0.316,0.262-0.772,0.352-1.262,0.348c0.047-0.238,0.091-0.484,0.13-0.744c0.6-3.992,0.649-7.472,0.178-10.458  C87.16,47.873,87.691,50.224,87.889,53.543z M83.019,56.215c-0.349,2.325-1.13,3.811-2.143,4.076  c-0.564,0.147-1.195-0.072-1.671-0.385c0.945-2.877,2.74-10.282,0.635-20.27C83.12,42.821,84.197,48.367,83.019,56.215z   M76.563,38.698c3.136,12.614-0.551,21.234-0.588,21.319c-0.119,0.272-0.581,0.439-1.159,0.396c-1.085-0.064-2.369-0.799-3.14-2.261  c0.596-0.583,1.019-1.333,1.182-2.226c1.488-8.094-2.341-21.428-3.899-24.438C72.372,32.295,75.418,34.096,76.563,38.698z   M39.267,35.4c-3.37,0.596-6.19-0.645-7.573-1.437c-0.752-0.43-1.153-1.066-1.153-1.066c-0.42-0.715-1.338-0.954-2.054-0.535  c-0.714,0.419-0.953,1.338-0.534,2.053c0.015,0.026,0.062,0.1,0.126,0.193c-2.291,0.203-4.422,0.581-6.378,1.118  c0.507-0.699,1.003-1.403,1.485-2.106c1.927-2.803,3.747-5.45,6.201-7.162c1.286-0.896,5.442-0.103,12.354,2.356  c0.444,0.158,0.826,0.294,1.131,0.397c0.479,0.162,1.105,0.511,1.018,1.665C43.752,32.686,41.945,34.929,39.267,35.4z   M45.317,34.954c0.916-1.209,1.466-2.577,1.563-3.848c0.138-1.806-0.615-3.33-1.994-4.215c0.429-0.063,0.858-0.128,1.254-0.189  c1.904-0.297,3.551-0.554,4.486-0.38c4.74,0.877,14.637,4.576,15.66,6.53c1.385,2.645,4.969,15.199,3.62,22.533  c-0.194,1.06-1.413,1.074-1.788,1.054c-1.637-0.092-3.488-1.475-3.686-4.293c-0.292-4.196-2.323-9.595-4.596-12.827l0,0  c-0.938-1.357-1.361-3.125-1.365-3.141c-0.186-0.807-0.988-1.31-1.799-1.124c-0.535,0.124-0.931,0.521-1.086,1.009  c-1.754-0.545-3.791-0.647-5.915-0.742C48.195,35.256,46.688,35.189,45.317,34.954z"></path></svg>