<svg fill="#262626" xmlns="http://www.w3.org/2000/svg" viewBox="0 0 100 100" x="0px" y="0px"><title>strategy</title><g><path d="M15,73a7,7,0,1,1-7,7,7,7,0,0,1,7-7m0-2a9,9,0,1,0,9,9,9,9,0,0,0-9-9ZM85,13a7,7,0,1,1-7,7,7,7,0,0,1,7-7m0-2a9,9,0,1,0,9,9,9,9,0,0,0-9-9ZM32.41,54.68l4.6-4.6a.5.5,0,0,0,0-.71l-.71-.71a.5.5,0,0,0-.71,0L31,53.26l-4.6-4.6a.5.5,0,0,0-.71,0l-.71.71a.5.5,0,0,0,0,.71l4.6,4.6L25,59.27A.5.5,0,0,0,25,60l.71.71a.5.5,0,0,0,.71,0l4.6-4.6,4.6,4.6a.5.5,0,0,0,.71,0L37,60a.5.5,0,0,0,0-.71Zm12-36,4.6-4.6a.5.5,0,0,0,0-.71l-.71-.71a.5.5,0,0,0-.71,0L43,17.26l-4.6-4.6a.5.5,0,0,0-.71,0l-.71.71a.5.5,0,0,0,0,.71l4.6,4.6L37,23.27A.5.5,0,0,0,37,24l.71.71a.5.5,0,0,0,.71,0l4.6-4.6,4.6,4.6a.5.5,0,0,0,.71,0L49,24a.5.5,0,0,0,0-.71Zm18,60,4.6-4.6a.5.5,0,0,0,0-.71l-.71-.71a.5.5,0,0,0-.71,0L61,77.26l-4.6-4.6a.5.5,0,0,0-.71,0l-.71.71a.5.5,0,0,0,0,.71l4.6,4.6L55,83.27A.5.5,0,0,0,55,84l.71.71a.5.5,0,0,0,.71,0l4.6-4.6,4.6,4.6a.5.5,0,0,0,.71,0L67,84a.5.5,0,0,0,0-.71Zm12-36,4.6-4.6a.5.5,0,0,0,0-.71l-.71-.71a.5.5,0,0,0-.71,0L73,41.26l-4.6-4.6a.5.5,0,0,0-.71,0l-.71.71a.5.5,0,0,0,0,.71l4.6,4.6L67,47.27A.5.5,0,0,0,67,48l.71.71a.5.5,0,0,0,.71,0l4.6-4.6,4.6,4.6a.5.5,0,0,0,.71,0L79,48a.5.5,0,0,0,0-.71ZM26,80.49l0-1a.5.5,0,0,1,.49-.5,31.51,31.51,0,0,0,4.8-.48.49.49,0,0,1,.57.39l.2,1a.5.5,0,0,1-.4.6,33.53,33.53,0,0,1-5.13.51A.51.51,0,0,1,26,80.49ZM37.42,78.1a19.59,19.59,0,0,0,7.67-8.15.51.51,0,0,0-.22-.69L44,68.8a.5.5,0,0,0-.66.22,17.67,17.67,0,0,1-6.86,7.33.49.49,0,0,0-.2.66l.47.89A.51.51,0,0,0,37.42,78.1ZM47.69,63.38a63.33,63.33,0,0,0,2-10.75.51.51,0,0,0-.45-.56l-1-.1a.5.5,0,0,0-.54.45,61.29,61.29,0,0,1-1.93,10.4.49.49,0,0,0,.33.61l1,.29A.5.5,0,0,0,47.69,63.38Zm2.45-17.69a41.32,41.32,0,0,1,1.71-10.33.49.49,0,0,0-.31-.62l-.95-.32a.5.5,0,0,0-.64.32,43.29,43.29,0,0,0-1.81,10.85.51.51,0,0,0,.48.53l1,0A.5.5,0,0,0,50.14,45.69Zm4.56-16.26a17.38,17.38,0,0,1,7.84-6.25.5.5,0,0,0,.28-.64l-.37-.93a.51.51,0,0,0-.66-.28,19.31,19.31,0,0,0-8.75,7,.51.51,0,0,0,.14.71l.84.55A.49.49,0,0,0,54.69,29.43Zm14.32-8A46.23,46.23,0,0,1,73.87,21a.5.5,0,0,0,.48-.52l0-1a.51.51,0,0,0-.53-.48,48.21,48.21,0,0,0-5.08.5.5.5,0,0,0-.41.58l.17,1A.49.49,0,0,0,69,21.43Z"></path></g></svg>