<svg fill="#262626" xmlns="http://www.w3.org/2000/svg" xmlns:xlink="http://www.w3.org/1999/xlink" version="1.1" x="0px" y="0px" viewBox="0 0 65 65" enable-background="new 0 0 65 65" xml:space="preserve"><g><path d="M60.7,21.8l-3.5,7v32.9c0,1.9,1.6,3.5,3.5,3.5c1.9,0,3.5-1.6,3.5-3.5V28.8L60.7,21.8z M60.7,25.2l2,4v2h-4v-2L60.7,25.2z    M62.7,32.7v24.3h-4V32.7H62.7z M60.7,63.8c-1.1,0-2-0.9-2-2v-3.3h4v3.3C62.7,62.9,61.8,63.8,60.7,63.8z"></path><path d="M48.8-0.2H8.3c-2.5,0-4.5,2-4.5,4.5v3.5h-3v1.5h3v8.1h-3v1.5h3V27h-3v1.5h3v8.1h-3V38h3v8.1h-3v1.5h3v8.1h-3v1.5h3v3.5   c0,2.5,2,4.5,4.5,4.5h40.5c2.5,0,4.5-2,4.5-4.5V4.3C53.3,1.8,51.3-0.2,48.8-0.2z M51.8,60.7c0,1.7-1.4,3-3,3H8.3c-1.7,0-3-1.4-3-3   v-3.5h4.2v1.5H11v-4.4H9.5v1.5H5.3v-8.1h4.2v1.5H11v-4.4H9.5v1.5H5.3V38h4.2v1.5H11v-4.4H9.5v1.5H5.3v-8.1h4.2v1.5H11v-4.4H9.5V27   H5.3v-8.1h4.2v1.5H11v-4.4H9.5v1.5H5.3V9.3h4.2v1.5H11V6.3H9.5v1.5H5.3V4.3c0-1.7,1.4-3,3-3h40.5c1.7,0,3,1.4,3,3V60.7z"></path><rect x="18.7" y="9.8" width="26.1" height="1.5"></rect><rect x="18.7" y="20.2" width="26.1" height="1.5"></rect><rect x="18.7" y="30.6" width="26.1" height="1.5"></rect><rect x="18.7" y="41" width="26.1" height="1.5"></rect><rect x="22.5" y="51.4" width="18.6" height="1.5"></rect></g></svg>